<?xml version="1.0" encoding="UTF-8" standalone="no"?><!DOCTYPE svg PUBLIC "-//W3C//DTD SVG 1.1//EN" "http://www.w3.org/Graphics/SVG/1.1/DTD/svg11.dtd"><svg width="100%" height="100%" viewBox="0 0 555 555" version="1.1" xmlns="http://www.w3.org/2000/svg" xmlns:xlink="http://www.w3.org/1999/xlink" xml:space="preserve" xmlns:serif="http://www.serif.com/" style="fill-rule:evenodd;clip-rule:evenodd;stroke-linejoin:round;stroke-miterlimit:1.41421;"><g><path d="M154.142,86.062c0,-36.337 30.6,-66.938 66.938,-66.938c36.338,0 66.937,30.6 66.937,66.938l0,53.55c11.476,-15.3 19.125,-34.425 19.125,-53.55c-0.001,-47.812 -38.251,-86.062 -86.063,-86.062c-47.812,0 -86.062,38.25 -86.062,86.062c0,21.038 7.65,40.163 19.125,53.55l0,-53.55Z" style="fill:#fff;fill-rule:nonzero;stroke:#fff;stroke-width:1px;"/><path d="M450.579,229.5c-11.475,0 -21.037,3.825 -28.688,9.562c0,-26.775 -21.037,-47.812 -47.812,-47.812c-11.475,0 -22.949,3.825 -32.512,11.475c-7.65,-19.125 -24.863,-30.6 -43.988,-30.6c-11.475,0 -21.037,3.825 -28.688,9.562l0,-95.625c0,-26.775 -21.037,-47.812 -47.812,-47.812c-26.775,0 -47.812,21.038 -47.812,47.812l0,170.212c-38.25,-34.425 -80.325,-61.2 -107.1,-34.425c-38.25,38.25 42.075,112.837 103.275,225.675c43.988,78.412 105.188,107.1 166.387,107.1c89.888,0 162.562,-72.675 162.562,-162.562l0,-114.75c0,-26.774 -21.037,-47.812 -47.812,-47.812Zm28.687,89.888l0,72.675c0,74.588 -65.024,143.438 -143.438,143.438c-72.675,0 -114.75,-40.162 -149.175,-95.625c-72.675,-126.225 -126.225,-183.6 -107.1,-204.638c21.037,-21.037 72.675,24.863 112.837,66.938l0,-216.114c0,-15.3 13.387,-28.688 28.688,-28.688c15.3,0 28.688,13.388 28.688,28.688l0,200.812l19.125,0l0,-66.938c0,-15.3 13.388,-28.688 28.688,-28.688c15.301,0 28.688,13.388 28.688,28.688l0,47.812l19.125,0l0,-28.688c0,-15.3 13.388,-28.688 28.688,-28.688c15.301,0 28.688,13.388 28.688,28.688l0,47.812l19.125,0l0,-9.562c0,-15.3 13.388,-28.688 28.688,-28.688c15.301,0 28.688,13.388 28.688,28.688l0,42.078l-0.003,0Z" style="fill:#fff;fill-rule:nonzero;stroke:#fff;stroke-width:1px;"/></g></svg>