<?xml version="1.0" encoding="UTF-8" standalone="no"?>
<!-- Created with Inkscape (http://www.inkscape.org/) -->
<svg xmlns:svg="http://www.w3.org/2000/svg" xmlns="http://www.w3.org/2000/svg" version="1.0" width="602.36218" height="158.84645" id="svg2385">
  <defs id="defs2387"/>
  <g transform="translate(-499.375,-640.62503)" id="layer1">
    <g transform="matrix(0.9411765,0,0,0.9411765,47.091511,62.66711)" id="g2413">
      <rect width="602.36218" height="131.10945" x="499.375" y="632.91272" id="rect2411" style="fill:#b30000;fill-opacity:1;stroke:none;stroke-width:41;stroke-miterlimit:4;stroke-dasharray:none;stroke-opacity:1"/>
      <path d="M 539.39785,650.63103 C 538.92148,650.67275 537.85522,651.30381 537.4718,651.43728 C 536.77376,652.09517 537.93764,653.34863 538.72597,652.78103 L 539.35306,651.43728 C 539.74649,650.78046 539.68367,650.60599 539.39785,650.63103 z M 535.94889,653.31853 C 534.46247,653.31858 532.37701,654.41253 531.11138,656.7675 C 530.84909,657.60316 531.11532,657.60063 531.24575,658.60396 C 531.50807,659.47543 531.7768,660.56656 531.5145,661.69459 C 531.7768,662.92153 533.19796,662.90397 534.29159,662.90397 C 535.07706,662.90395 537.17725,659.4998 537.91972,659.4998 C 538.4888,659.0641 538.72132,656.77395 538.50201,655.42375 C 538.502,654.41895 537.04252,653.31853 535.94889,653.31853 z M 529.81242,653.81124 C 529.66419,653.8497 529.46949,653.91301 529.18533,654.0352 C 528.35544,654.20429 527.96771,654.40679 527.66241,654.97583 C 527.26966,655.63228 527.63948,656.39698 528.55825,655.96125 C 529.17171,655.65879 529.41359,654.9726 529.58846,654.5727 C 530.14637,653.91909 530.25707,653.69589 529.81242,653.81124 z M 545.98224,655.64771 C 545.86132,655.70352 545.73104,655.83046 545.53432,655.96125 C 545.27199,656.13035 544.45502,656.76893 544.28015,656.94667 C 544.01927,657.81813 545.05845,658.63227 545.71349,657.8425 C 545.93274,657.62896 546.11661,656.75711 546.11661,656.54354 C 546.41118,655.69106 546.34499,655.48028 545.98224,655.64771 z M 525.10928,656.94667 C 524.49726,656.94667 522.00181,658.04854 521.34678,659.05188 C 520.51544,660.53679 520.75624,664.17175 522.24261,664.78522 C 523.2488,665.22098 525.39308,664.782 526.00512,664.3821 C 527.05575,663.99081 528.96746,661.83255 529.18533,660.12688 C 529.40465,659.03322 528.72702,658.05213 528.33429,657.34979 C 528.33427,657.34978 528.3239,657.34979 527.93116,657.34979 C 526.83754,657.34978 526.24592,657.33797 525.10928,656.94667 z M 542.48848,658.87271 C 541.70013,658.87273 540.61547,659.2719 539.1291,660.93313 C 538.29774,661.84906 537.91327,663.28846 537.65097,664.3821 C 537.47612,667.62575 540.39473,668.19799 542.71244,666.93523 C 543.80466,666.23432 544.8284,664.80278 545.26557,663.75501 C 545.70278,662.91935 545.70919,660.55939 545.53432,659.72375 C 545.53429,659.51019 545.25948,659.4998 545.04161,659.4998 C 544.42814,659.49984 543.62512,659.27261 542.48848,658.87271 z M 596.05941,664.15814 C 592.22521,664.15814 590.72919,665.56209 590.72919,669.8019 L 590.72919,671.50398 C 590.72916,675.63774 592.22524,677.14774 596.05941,677.14774 L 598.79171,677.14774 C 602.623,677.14771 604.12192,675.63772 604.12192,671.50398 L 604.12192,669.8019 C 604.12197,665.56208 602.62301,664.15814 598.79171,664.15814 L 596.05941,664.15814 z M 918.73915,664.15814 C 914.90499,664.15814 913.40893,665.56209 913.40893,669.8019 L 913.40893,671.50398 C 913.40896,675.63774 914.90641,677.14774 918.73915,677.14774 L 921.47145,677.14774 C 925.30275,677.14771 926.80166,675.63772 926.80166,671.50398 L 926.80166,669.8019 C 926.80169,665.56208 925.30132,664.15814 921.47145,664.15814 L 918.73915,664.15814 z M 578.63542,664.24772 L 564.12289,665.4571 C 563.1138,665.55455 562.59997,666.25188 562.59997,667.15918 L 562.59997,670.78732 C 562.59999,671.59712 562.98088,672.32923 563.98852,672.53419 L 569.04999,673.6092 L 569.04999,684.00088 C 567.33574,682.49016 564.69694,681.26858 561.16664,681.26858 C 552.29286,681.26861 546.34057,689.46906 546.34057,708.72592 C 546.34057,728.99615 550.77065,735.73535 558.83747,735.73535 C 563.67781,735.73532 567.32353,733.81074 570.75207,727.35929 L 571.46874,733.63014 C 571.56903,734.73237 572.36278,735.25052 573.57395,735.15306 L 585.66772,734.03326 C 586.67827,733.9344 587.19064,733.19225 587.19064,732.28638 L 587.19064,728.65825 C 587.19064,727.84988 586.81117,727.15253 585.8021,726.95617 L 580.74063,725.83637 L 580.74063,665.94981 C 580.74062,664.63399 579.84372,664.15025 578.63542,664.24772 z M 532.32075,664.56126 C 531.22994,664.60214 529.58847,665.23314 529.58846,665.23314 C 529.58846,665.23314 527.08405,665.70972 525.42282,666.93523 C 525.42282,666.93523 522.60919,667.12832 521.12282,667.78627 C 519.19928,668.17757 517.09157,671.14346 517.09156,673.0269 C 517.09156,674.33411 518.38334,676.04018 519.82386,676.47587 C 520.74119,676.87577 521.13824,676.47591 521.79469,676.47587 C 521.79469,676.47587 521.79471,676.43252 521.79469,676.61024 C 522.22899,677.04598 523.42262,679.2676 524.07907,679.83525 C 524.95341,680.49315 527.08442,680.86543 527.25929,680.86546 C 527.25929,680.86546 527.26396,680.86543 527.48325,680.86546 C 527.48325,681.30119 528.33035,683.2767 529.99158,684.49359 C 531.74169,685.76353 534.67577,684.10947 535.72493,683.06025 C 537.03643,681.09658 537.47466,680.06597 537.65097,678.58108 C 537.03894,676.47551 535.93167,674.9035 537.02389,671.10086 C 537.45962,668.82472 535.92882,668.17753 535.05305,667.78627 C 534.44245,667.3061 534.47434,664.95255 532.76867,664.56126 C 532.64325,664.53905 532.47659,664.55543 532.32075,664.56126 z M 546.92286,666.03939 C 546.80516,666.06161 546.63888,666.2225 546.47495,666.5321 C 546.08224,667.14555 545.70274,667.29607 545.26557,667.6071 C 544.43428,668.38972 545.50888,669.47617 546.29578,668.86127 C 546.90777,668.20482 547.23641,667.63541 547.23641,666.66647 C 547.23642,666.31171 547.11903,666.00235 546.92286,666.03939 z M 674.98247,666.98002 C 674.80873,666.9869 674.60192,667.01836 674.40017,667.0696 L 669.56266,668.18939 C 668.45326,668.38433 667.84948,669.10532 667.54704,670.51857 L 665.0387,681.89567 L 660.82827,681.89567 C 659.81921,681.89567 659.08138,682.48692 659.0814,683.59776 L 659.0814,688.83839 C 659.0814,689.94922 659.81921,690.5853 660.82827,690.58527 L 665.0387,690.58527 L 665.0387,722.83532 C 665.0387,732.21077 668.97574,735.73532 675.02726,735.73535 C 679.36167,735.73535 682.98586,734.22818 685.50853,731.70409 C 685.91129,731.30419 686.72759,730.50793 687.03145,730.002 C 687.53455,729.19074 687.54672,728.39168 686.94186,727.58325 L 685.01582,724.85095 C 684.41238,723.93505 683.40406,723.84295 682.59706,724.44783 C 680.58036,725.95856 679.25987,726.46347 678.25226,726.46346 C 677.24463,726.46346 676.72936,725.94062 676.72934,722.20824 L 676.72934,690.58527 L 685.32936,690.58527 C 686.33986,690.58527 687.03146,689.9492 687.03145,688.83839 L 687.03145,683.59776 C 687.03145,682.48692 686.33982,681.8957 685.32936,681.89567 L 676.72934,681.89567 L 676.72934,668.77169 C 676.72934,667.885 676.19865,666.9319 674.98247,666.98002 z M 947.2267,666.98002 C 947.05295,666.9869 946.84615,667.01836 946.64441,667.0696 L 941.8069,668.18939 C 940.69893,668.38433 940.09375,669.10532 939.79127,670.51857 L 937.28293,681.89567 L 933.07251,681.89567 C 932.06487,681.89567 931.3256,682.48692 931.32563,683.59776 L 931.32563,688.83839 C 931.32563,689.94922 932.06484,690.5853 933.07251,690.58527 L 937.28293,690.58527 L 937.28293,722.83532 C 937.28293,732.21077 941.2214,735.73532 947.27149,735.73535 C 951.60733,735.73535 955.23438,734.22818 957.75276,731.70409 C 958.15839,731.30419 958.97468,730.50793 959.27568,730.002 C 959.78165,729.19074 959.78952,728.39168 959.1861,727.58325 L 957.26005,724.85095 C 956.65518,723.93505 955.64825,723.84295 954.8413,724.44783 C 952.82459,725.95856 951.50267,726.46347 950.4965,726.46346 C 949.486,726.46346 948.97356,725.94062 948.97358,722.20824 L 948.97358,690.58527 L 956.76734,690.58527 C 957.77641,690.58527 958.46939,689.9492 958.46943,688.83839 L 958.46943,683.59776 C 958.46943,682.48692 957.7764,681.8957 956.76734,681.89567 L 948.97358,681.89567 L 948.97358,668.77169 C 948.97358,667.885 948.44291,666.9319 947.2267,666.98002 z M 542.71244,669.04044 C 542.40356,669.05781 542.05399,669.13217 541.68223,669.2644 C 540.41513,669.69867 540.41301,671.39326 539.80098,672.17586 C 538.88222,673.31251 538.32285,673.91593 538.32285,675.2217 C 538.32282,676.19062 539.35342,678.57785 541.18952,678.17795 C 542.89376,677.7867 542.91346,676.86502 543.83223,676.20712 C 544.66354,675.63811 545.27632,674.55484 545.71349,673.0269 C 545.56045,671.3789 544.87464,668.91886 542.71244,669.04044 z M 629.33968,680.77588 C 618.5495,680.77586 611.78131,687.15637 611.78131,708.63634 C 611.78133,732.43399 619.88396,735.73535 629.16051,735.73535 C 635.1089,735.73532 642.05802,732.21973 645.68866,727.18012 C 646.4942,726.06925 646.48345,725.33721 645.77825,724.53741 L 643.8522,722.20824 C 643.34906,721.60334 642.97894,721.40199 642.37407,721.40199 C 640.25708,721.40202 637.42799,726.46346 630.77301,726.46346 C 625.52986,726.46347 623.91988,722.20896 623.91988,713.33947 L 623.91988,712.53322 L 643.44908,710.60718 C 644.86088,710.50968 645.59908,709.92634 645.59908,708.81551 L 645.59908,705.18738 C 645.59907,686.73894 640.5326,680.77588 629.33968,680.77588 z M 787.05142,680.77588 C 776.26122,680.77586 769.49305,687.15637 769.49305,708.63634 C 769.49302,732.43399 777.5957,735.73535 786.87225,735.73535 C 792.82205,735.73532 799.7755,732.21973 803.4004,727.18012 C 804.20734,726.06925 804.19662,725.33721 803.48999,724.53741 L 801.56394,722.20824 C 801.058,721.60334 800.64446,721.40199 800.04102,721.40199 C 797.924,721.40202 795.14116,726.46346 788.48475,726.46346 C 783.23873,726.46347 781.63161,722.20896 781.63161,713.33947 L 781.63161,712.53322 L 801.16082,710.60718 C 802.57265,710.50968 803.26603,709.92634 803.26603,708.81551 L 803.26603,705.18738 C 803.26601,686.73894 798.24147,680.77588 787.05142,680.77588 z M 821.80981,680.77588 C 812.33547,680.77586 806.62541,686.64682 806.62541,695.8259 C 806.62544,712.3551 825.03482,710.92036 825.03482,720.90928 C 825.03479,724.34071 823.33416,726.64262 820.10772,726.64262 C 817.28405,726.64262 815.05844,726.04564 811.73167,724.22387 C 810.32552,723.42405 809.42364,723.8297 808.8202,724.94054 L 806.89416,728.25513 C 806.18755,729.46341 806.41041,730.59003 807.52124,731.30096 C 811.25081,734.02141 815.69556,735.73535 821.13793,735.73535 C 831.2243,735.73532 837.17338,729.60175 837.17338,719.92386 C 837.17339,702.97607 818.49522,704.88064 818.49522,694.79569 C 818.49522,691.77274 820.02602,689.64464 823.15356,689.64464 C 825.37376,689.64464 827.5539,690.34913 830.67858,692.0634 C 831.7865,692.66823 832.63759,692.37909 833.14212,691.57069 L 835.4265,687.53943 C 835.93108,686.63357 835.82891,685.81513 835.02338,685.21026 C 831.09032,682.28624 826.65019,680.77588 821.80981,680.77588 z M 889.80368,680.77588 C 879.01214,680.77586 872.24532,687.15637 872.24532,708.63634 C 872.24527,732.43399 880.29887,735.73535 889.57972,735.73535 C 895.5266,735.73532 902.48154,732.21973 906.10788,727.18012 C 906.91624,726.06925 906.95032,725.33721 906.24225,724.53741 L 904.31621,722.20824 C 903.81023,721.60334 903.39816,721.40199 902.79329,721.40199 C 900.67336,721.40202 897.84864,726.46346 891.19223,726.46346 C 885.94911,726.46347 884.33909,722.20896 884.33909,713.33947 L 884.33909,712.53322 L 903.91308,710.60718 C 905.3235,710.50968 906.01829,709.92634 906.01829,708.81551 L 906.01829,705.18738 C 906.01827,686.73894 900.99517,680.77588 889.80368,680.77588 z M 1030.9872,680.77588 C 1026.1454,680.77586 1022.4997,682.69905 1019.0726,689.15193 L 1018.3559,682.88109 C 1018.257,681.77021 1017.4605,681.30406 1016.2508,681.40296 L 1004.157,682.47796 C 1003.1479,682.57547 1002.6341,683.31897 1002.6341,684.22484 L 1002.6341,687.85297 C 1002.6341,688.66139 1003.0136,689.36012 1004.0226,689.55506 L 1009.0841,690.67485 L 1009.0841,731.79367 C 1009.0841,733.31304 1009.991,734.61555 1011.906,734.61555 L 1017.9528,734.61555 C 1019.6671,734.61557 1020.7747,733.41048 1020.7747,731.79367 L 1020.7747,698.73737 C 1024.7078,691.77852 1026.3167,690.27173 1028.031,690.27173 C 1029.7453,690.2717 1030.6737,692.58692 1030.6737,701.96237 L 1030.6737,733.40618 C 1030.6737,734.71199 1031.5677,735.25052 1032.7789,735.15306 L 1047.2914,733.94368 C 1048.299,733.84621 1048.8143,733.10267 1048.8143,732.1968 L 1048.8143,728.56867 C 1048.8143,727.76885 1048.4334,727.07155 1047.4258,726.86658 L 1042.3643,725.74679 L 1042.3643,700.66341 C 1042.3643,687.04957 1038.8519,680.77588 1030.9872,680.77588 z M 706.38148,680.86546 C 699.62327,680.86544 693.46067,684.63334 689.62937,689.77902 C 688.82238,690.88988 688.94602,692.07773 689.85333,692.78006 L 692.85437,695.2884 C 693.96524,696.30178 694.80156,695.90653 695.81063,694.79569 C 698.4322,691.77274 700.92513,689.64464 704.45544,689.64464 C 708.28676,689.64467 710.0992,692.09636 710.0992,697.4384 L 710.0992,702.3655 L 707.81482,702.3655 C 699.34528,702.36545 689.36062,706.37705 689.36062,720.59574 C 689.36066,730.88564 693.70183,735.73535 700.96168,735.73535 C 706.9115,735.73532 709.81719,731.30777 711.93566,727.67283 L 712.51795,733.63014 C 712.61831,734.74097 713.45822,735.25052 714.66795,735.15306 L 726.76172,734.03326 C 727.77082,733.9344 728.28464,733.19225 728.28464,732.28638 L 728.28464,728.65825 C 728.28463,727.84988 727.85894,727.16113 726.85131,726.95617 L 721.83463,725.83637 L 721.83463,696.72174 C 721.8346,686.74139 716.86777,680.86546 706.38148,680.86546 z M 743.91696,681.26858 C 735.04178,681.26861 729.35965,689.43358 729.35965,705.36654 C 729.35965,723.5126 733.11821,730.5843 741.58779,730.5843 C 745.31874,730.58434 749.64959,728.78044 752.06906,724.0447 L 752.06906,727.04575 C 752.06909,736.02131 751.66952,737.84056 744.40967,737.84056 L 736.1232,737.84056 C 734.91205,737.84057 734.21758,738.73747 734.42111,739.94577 L 734.91382,743.48432 C 735.11589,744.79006 735.75197,745.11581 736.6607,745.32078 C 740.59237,746.12921 744.09541,746.3062 746.51488,746.3062 C 756.59837,746.30621 763.44617,743.68105 763.44617,727.04575 L 763.44617,683.59776 C 763.44618,682.48692 762.75171,681.89567 761.74408,681.89567 L 756.59303,681.89567 C 755.68573,681.8957 755.10236,682.37691 754.80136,683.28421 L 753.77115,686.10609 C 751.3502,682.98572 747.64794,681.26858 743.91696,681.26858 z M 1064.4466,681.26858 C 1055.5743,681.26861 1049.9341,689.43358 1049.9341,705.36654 C 1049.9341,723.5126 1053.6479,730.5843 1062.1175,730.5843 C 1065.8499,730.58434 1070.1778,728.78044 1072.5987,724.0447 L 1072.5987,727.04575 C 1072.5988,736.02131 1072.2006,737.84056 1064.9393,737.84056 L 1056.6977,737.84056 C 1055.4908,737.84057 1054.7473,738.73747 1054.9508,739.94577 L 1055.4883,743.48432 C 1055.689,744.79006 1056.2845,745.11581 1057.1904,745.32078 C 1061.1235,746.12921 1064.6684,746.3062 1067.0894,746.3062 C 1077.1714,746.30621 1084.0206,743.68105 1084.0206,727.04575 L 1084.0206,683.59776 C 1084.0206,682.48692 1083.3276,681.89567 1082.3185,681.89567 L 1077.1675,681.89567 C 1076.2616,681.8957 1075.6335,682.37691 1075.331,683.28421 L 1074.3456,686.10609 C 1071.9233,682.98572 1068.1805,681.26858 1064.4466,681.26858 z M 601.43442,681.40296 L 586.8771,682.61234 C 585.8666,682.70976 585.39897,683.40712 585.39897,684.31442 L 585.39897,687.94255 C 585.39902,688.74233 585.77845,689.44971 586.78752,689.64464 L 591.84898,690.76443 L 591.84898,733.40618 C 591.84894,734.71199 592.74446,735.25052 593.9542,735.15306 L 608.46672,733.94368 C 609.47436,733.83761 609.98964,733.10267 609.98964,732.1968 L 609.98964,728.56867 C 609.98963,727.76885 609.56537,727.07155 608.55631,726.86658 L 603.53963,725.74679 L 603.53963,683.10505 C 603.53966,681.79069 602.64415,681.30406 601.43442,681.40296 z M 924.06937,681.40296 L 909.55684,682.61234 C 908.54779,682.70976 908.03392,683.40712 908.03392,684.31442 L 908.03392,687.94255 C 908.03388,688.74233 908.45819,689.44971 909.46726,689.64464 L 914.48393,690.76443 L 914.48393,733.40618 C 914.48391,734.71199 915.42707,735.25052 916.63394,735.15306 L 931.14646,733.94368 C 932.15555,733.83761 932.66938,733.10267 932.66938,732.1968 L 932.66938,728.56867 C 932.6694,727.76885 932.24512,727.07155 931.23605,726.86658 L 926.17458,725.74679 L 926.17458,683.10505 C 926.17459,681.79069 925.28054,681.30406 924.06937,681.40296 z M 974.28092,681.40296 L 961.47048,682.61234 C 960.46288,682.71836 959.99235,683.40712 959.99235,684.31442 L 959.99235,688.34568 C 959.99231,689.1541 960.37039,689.8428 961.38089,690.04777 L 964.69548,690.76443 L 964.69548,715.8926 C 964.69547,729.4978 968.25123,735.73535 976.11738,735.73535 C 980.95633,735.73532 984.55578,733.81074 987.98719,727.35929 L 988.70386,733.63014 C 988.80279,734.74097 989.64556,735.25052 990.85386,735.15306 L 1002.9476,734.03326 C 1003.9566,733.9344 1004.4257,733.19225 1004.4257,732.28638 L 1004.4257,728.65825 C 1004.4257,727.84988 1004.0463,727.16113 1003.0372,726.95617 L 997.97575,725.83637 L 997.97575,683.10505 C 997.97571,681.79069 997.07884,681.30406 995.87054,681.40296 L 983.0601,682.61234 C 982.05245,682.71836 981.53718,683.40712 981.53718,684.31442 L 981.53718,688.34568 C 981.53714,689.1541 981.96288,689.8428 982.97051,690.04777 L 986.2851,690.76443 L 986.2851,717.77386 C 982.35206,724.74126 980.74311,726.28429 979.02884,726.28429 C 977.3146,726.28428 976.43092,723.9243 976.43092,714.54885 L 976.43092,683.10505 C 976.43092,681.79929 975.49208,681.30406 974.28092,681.40296 z M 841.60776,681.89567 C 840.49979,681.8957 839.86088,682.58439 839.86088,683.59776 L 839.86088,688.92797 C 839.86091,690.03879 840.59869,690.67485 841.60776,690.67485 L 857.01612,690.67485 L 840.80151,722.74574 C 839.99453,724.06156 839.59213,725.1498 839.59213,726.55304 L 839.59213,732.91347 C 839.59211,734.02578 840.28515,734.61555 841.29422,734.61555 L 867.72135,734.61555 C 868.82933,734.61557 869.42344,733.92684 869.42344,732.91347 L 869.42344,727.58325 C 869.42345,726.47239 868.72899,725.83637 867.72135,725.83637 L 851.99945,725.83637 L 868.12448,693.89986 C 868.82969,692.6916 869.33385,691.07905 869.33385,689.06235 L 869.33385,683.59776 C 869.33384,682.48692 868.63797,681.89567 867.63177,681.89567 L 841.60776,681.89567 z M 629.02613,688.74881 C 632.45321,688.74879 633.77406,692.4805 633.77406,703.17175 L 623.91988,703.978 C 623.91986,691.17255 626.3028,688.74881 629.02613,688.74881 z M 786.73787,688.74881 C 790.16643,688.74879 791.4858,692.4805 791.4858,703.17175 L 781.63161,703.978 C 781.63302,691.17255 784.01597,688.74881 786.73787,688.74881 z M 889.49014,688.74881 C 892.91729,688.74879 894.23806,692.4805 894.23806,703.17175 L 884.33909,703.978 C 884.33906,691.17255 886.76393,688.74881 889.49014,688.74881 z M 563.58539,690.13735 C 565.50178,690.13731 567.53638,691.15394 569.04999,692.86965 L 569.04999,717.77386 C 565.11694,724.73123 563.50799,726.2395 561.79372,726.2395 C 559.67669,726.23945 558.43434,721.30631 558.43434,707.29259 C 558.43433,693.57988 560.66139,690.13735 563.58539,690.13735 z M 746.33572,690.13735 C 748.25213,690.13731 750.14015,691.28617 751.75552,693.81027 L 751.75552,712.53322 C 747.92275,719.49205 746.50521,720.99886 744.58884,720.99886 C 742.67392,720.99885 741.36383,716.376 741.36383,705.18738 C 741.36382,693.38675 743.41171,690.13735 746.33572,690.13735 z M 1066.8654,690.13735 C 1068.7789,690.13731 1070.7161,691.28617 1072.33,693.81027 L 1072.33,712.53322 C 1068.4972,719.49205 1067.0825,720.99886 1065.1633,720.99886 C 1063.2498,720.99885 1061.9383,716.376 1061.9383,705.18738 C 1061.9383,693.38675 1063.94,690.13735 1066.8654,690.13735 z M 707.81482,710.65197 L 710.0992,710.65197 L 710.0992,718.40094 C 706.57031,724.95841 704.75859,726.2395 703.64918,726.2395 C 702.13701,726.23945 701.23043,724.54709 701.23043,719.29678 C 701.23047,712.8453 703.98351,710.65197 707.81482,710.65197 z" id="path3" style="fill:#ffffff"/>
    </g>
  </g>
</svg>